<svg xmlns:xlink="http://www.w3.org/1999/xlink"  width="100%" height="100%" viewBox="0 0 24 24" fill="currentColor" xmlns="http://www.w3.org/2000/svg">
<g clip-path="url(#clip0_87_19)">
<path d="M16.9497 14.8712C17.3639 14.8712 17.6996 14.5355 17.6996 14.1213V7.05024C17.6996 6.99849 17.6951 6.94781 17.6851 6.89901C17.6792 6.87036 17.6679 6.84351 17.6588 6.81615C17.6531 6.79874 17.6493 6.7807 17.6423 6.76367C17.6214 6.71337 17.595 6.66619 17.5642 6.62211C17.5393 6.58642 17.5118 6.55176 17.48 6.51991C17.4489 6.48878 17.4147 6.46225 17.3799 6.43774C17.3348 6.40601 17.2865 6.37892 17.2348 6.35763C17.2216 6.35218 17.2076 6.34917 17.1941 6.34451C17.1172 6.31788 17.0356 6.30032 16.9497 6.30032H9.87859C9.46437 6.30032 9.12867 6.63603 9.12867 7.05024C9.12867 7.46445 9.46438 7.80016 9.87859 7.80016H15.1391L6.51983 16.4194C6.22694 16.7123 6.22694 17.1872 6.51983 17.4801C6.81273 17.7729 7.28761 17.7729 7.58049 17.4801L16.1997 8.86082V14.1213C16.1997 14.5355 16.5355 14.8712 16.9497 14.8712Z" fill="currentColor"></path>
</g>
<defs>
<clipPath id="clip0_87_19">
<rect width="100%" height="100%" fill="currentColor"></rect>
</clipPath>
</defs>
</svg>