<svg width="64" height="64" viewBox="0 0 64 64" fill="none" xmlns="http://www.w3.org/2000/svg">
<path d="M0 16C0 7.16344 7.16344 0 16 0H48C56.8366 0 64 7.16344 64 16V48C64 56.8366 56.8366 64 48 64H16C7.16344 64 0 56.8366 0 48V16Z" fill="#E9F0FB"></path>
<path fill-rule="evenodd" clip-rule="evenodd" d="M27.3333 24C27.3333 23.6318 27.6318 23.3333 28 23.3333H36C36.3682 23.3333 36.6667 23.6318 36.6667 24V40C36.6667 40.3682 36.3682 40.6667 36 40.6667H28C27.6318 40.6667 27.3333 40.3682 27.3333 40V24ZM28 22C26.8954 22 26 22.8954 26 24V40C26 41.1046 26.8954 42 28 42H36C37.1046 42 38 41.1046 38 40V24C38 22.8954 37.1046 22 36 22H28ZM18.1953 26.1953C18.4556 25.9349 18.8777 25.9349 19.1381 26.1953L21.8047 28.8619C22.0651 29.1223 22.0651 29.5444 21.8047 29.8047L19.6095 32L21.8047 34.1953C22.0651 34.4556 22.0651 34.8777 21.8047 35.1381L19.1381 37.8047C18.8777 38.0651 18.4556 38.0651 18.1953 37.8047C17.9349 37.5444 17.9349 37.1223 18.1953 36.8619L20.3905 34.6667L18.1953 32.4714C17.9349 32.2111 17.9349 31.7889 18.1953 31.5286L20.3905 29.3333L18.1953 27.1381C17.9349 26.8777 17.9349 26.4556 18.1953 26.1953ZM45.8047 26.1953C46.0651 26.4556 46.0651 26.8777 45.8047 27.1381L43.6095 29.3333L45.8047 31.5286C46.0651 31.7889 46.0651 32.2111 45.8047 32.4714L43.6095 34.6667L45.8047 36.8619C46.0651 37.1223 46.0651 37.5444 45.8047 37.8047C45.5444 38.0651 45.1223 38.0651 44.8619 37.8047L42.1953 35.1381C41.9349 34.8777 41.9349 34.4556 42.1953 34.1953L44.3905 32L42.1953 29.8047C41.9349 29.5444 41.9349 29.1223 42.1953 28.8619L44.8619 26.1953C45.1223 25.9349 45.5444 25.9349 45.8047 26.1953Z" fill="#3B70DF"></path>
</svg>